<mxfile host="app.diagrams.net" modified="2023-12-26T07:41:37.082Z" agent="Mozilla/5.0 (Windows NT 10.0; Win64; x64; rv:121.0) Gecko/20100101 Firefox/121.0" etag="bEdFptn0aWmO9iu1wfZz" version="22.1.11" type="github">
  <diagram name="Page-1" id="YelkGCeMazvoDBq8n71y">
    <mxGraphModel dx="1450" dy="603" grid="1" gridSize="10" guides="1" tooltips="1" connect="1" arrows="1" fold="1" page="1" pageScale="1" pageWidth="850" pageHeight="1100" math="0" shadow="0">
      <root>
        <mxCell id="0" />
        <mxCell id="1" parent="0" />
        <mxCell id="x7VfMDNwSIcgL4_Bs0VZ-4" value="" style="group" parent="1" vertex="1" connectable="0">
          <mxGeometry x="120" y="40" width="320" height="280" as="geometry" />
        </mxCell>
        <mxCell id="x7VfMDNwSIcgL4_Bs0VZ-1" value="" style="whiteSpace=wrap;html=1;aspect=fixed;" parent="x7VfMDNwSIcgL4_Bs0VZ-4" vertex="1">
          <mxGeometry width="280" height="280" as="geometry" />
        </mxCell>
        <mxCell id="x7VfMDNwSIcgL4_Bs0VZ-2" value="Node Registry" style="ellipse;whiteSpace=wrap;html=1;" parent="x7VfMDNwSIcgL4_Bs0VZ-4" vertex="1">
          <mxGeometry x="25.6" y="78.4" width="153.6" height="89.60000000000001" as="geometry" />
        </mxCell>
        <mxCell id="x7VfMDNwSIcgL4_Bs0VZ-3" value="CD" style="text;html=1;strokeColor=none;fillColor=none;align=center;verticalAlign=middle;whiteSpace=wrap;rounded=0;" parent="x7VfMDNwSIcgL4_Bs0VZ-4" vertex="1">
          <mxGeometry x="102.4" y="33.6" width="76.8" height="33.6" as="geometry" />
        </mxCell>
        <mxCell id="x7VfMDNwSIcgL4_Bs0VZ-9" value="RegistryBuilder" style="ellipse;whiteSpace=wrap;html=1;aspect=fixed;" parent="x7VfMDNwSIcgL4_Bs0VZ-4" vertex="1">
          <mxGeometry x="150" y="180.00000000000003" width="89.60000000000001" height="89.60000000000001" as="geometry" />
        </mxCell>
        <mxCell id="x7VfMDNwSIcgL4_Bs0VZ-17" value="" style="endArrow=classic;startArrow=classic;html=1;rounded=0;" parent="x7VfMDNwSIcgL4_Bs0VZ-4" target="x7VfMDNwSIcgL4_Bs0VZ-10" edge="1">
          <mxGeometry width="50" height="50" relative="1" as="geometry">
            <mxPoint x="240" y="230" as="sourcePoint" />
            <mxPoint x="290" y="180" as="targetPoint" />
          </mxGeometry>
        </mxCell>
        <mxCell id="x7VfMDNwSIcgL4_Bs0VZ-18" value="" style="endArrow=classic;startArrow=classic;html=1;rounded=0;" parent="x7VfMDNwSIcgL4_Bs0VZ-4" target="x7VfMDNwSIcgL4_Bs0VZ-9" edge="1">
          <mxGeometry width="50" height="50" relative="1" as="geometry">
            <mxPoint x="160" y="150" as="sourcePoint" />
            <mxPoint x="220" y="100" as="targetPoint" />
          </mxGeometry>
        </mxCell>
        <mxCell id="x7VfMDNwSIcgL4_Bs0VZ-10" value="LoginLogoutKafkaTopic" style="shape=process;whiteSpace=wrap;html=1;backgroundOutline=1;" parent="1" vertex="1">
          <mxGeometry x="570" y="310" width="200" height="60" as="geometry" />
        </mxCell>
        <mxCell id="x7VfMDNwSIcgL4_Bs0VZ-11" value="" style="group" parent="1" vertex="1" connectable="0">
          <mxGeometry x="120" y="340" width="280" height="280" as="geometry" />
        </mxCell>
        <mxCell id="x7VfMDNwSIcgL4_Bs0VZ-12" value="" style="whiteSpace=wrap;html=1;aspect=fixed;" parent="x7VfMDNwSIcgL4_Bs0VZ-11" vertex="1">
          <mxGeometry width="280" height="280" as="geometry" />
        </mxCell>
        <mxCell id="x7VfMDNwSIcgL4_Bs0VZ-13" value="Node Registry" style="ellipse;whiteSpace=wrap;html=1;" parent="x7VfMDNwSIcgL4_Bs0VZ-11" vertex="1">
          <mxGeometry x="22.400000000000002" y="60.00000000000001" width="134.4" height="89.60000000000001" as="geometry" />
        </mxCell>
        <mxCell id="x7VfMDNwSIcgL4_Bs0VZ-14" value="CD" style="text;html=1;strokeColor=none;fillColor=none;align=center;verticalAlign=middle;whiteSpace=wrap;rounded=0;" parent="x7VfMDNwSIcgL4_Bs0VZ-11" vertex="1">
          <mxGeometry x="89.60000000000001" y="33.6" width="67.2" height="33.6" as="geometry" />
        </mxCell>
        <mxCell id="x7VfMDNwSIcgL4_Bs0VZ-15" value="RegistryBuilder" style="ellipse;whiteSpace=wrap;html=1;aspect=fixed;" parent="x7VfMDNwSIcgL4_Bs0VZ-11" vertex="1">
          <mxGeometry x="131.25" y="180.00000000000003" width="78.4" height="78.4" as="geometry" />
        </mxCell>
        <mxCell id="x7VfMDNwSIcgL4_Bs0VZ-16" value="" style="endArrow=classic;startArrow=classic;html=1;rounded=0;" parent="x7VfMDNwSIcgL4_Bs0VZ-11" target="x7VfMDNwSIcgL4_Bs0VZ-10" edge="1">
          <mxGeometry width="50" height="50" relative="1" as="geometry">
            <mxPoint x="210" y="210" as="sourcePoint" />
            <mxPoint x="253.75" y="160" as="targetPoint" />
          </mxGeometry>
        </mxCell>
        <mxCell id="x7VfMDNwSIcgL4_Bs0VZ-19" value="" style="endArrow=classic;startArrow=classic;html=1;rounded=0;entryX=0.647;entryY=0.033;entryDx=0;entryDy=0;entryPerimeter=0;" parent="x7VfMDNwSIcgL4_Bs0VZ-11" target="x7VfMDNwSIcgL4_Bs0VZ-15" edge="1">
          <mxGeometry width="50" height="50" relative="1" as="geometry">
            <mxPoint x="148.75" y="120" as="sourcePoint" />
            <mxPoint x="192.5" y="70" as="targetPoint" />
          </mxGeometry>
        </mxCell>
        <mxCell id="x7VfMDNwSIcgL4_Bs0VZ-20" value="&lt;div&gt;RegistryBuilderMicroservice&lt;/div&gt;&lt;div&gt;&lt;br&gt;&lt;/div&gt;" style="ellipse;whiteSpace=wrap;html=1;aspect=fixed;" parent="1" vertex="1">
          <mxGeometry x="620" y="80" width="160" height="160" as="geometry" />
        </mxCell>
        <mxCell id="x7VfMDNwSIcgL4_Bs0VZ-21" value="" style="endArrow=classic;startArrow=classic;html=1;rounded=0;exitX=0.59;exitY=0.017;exitDx=0;exitDy=0;exitPerimeter=0;" parent="1" source="x7VfMDNwSIcgL4_Bs0VZ-10" edge="1">
          <mxGeometry width="50" height="50" relative="1" as="geometry">
            <mxPoint x="650" y="290" as="sourcePoint" />
            <mxPoint x="700" y="240" as="targetPoint" />
          </mxGeometry>
        </mxCell>
        <mxCell id="x7VfMDNwSIcgL4_Bs0VZ-22" value="REDIS" style="rounded=0;whiteSpace=wrap;html=1;" parent="1" vertex="1">
          <mxGeometry x="470" y="70" width="120" height="60" as="geometry" />
        </mxCell>
        <mxCell id="x7VfMDNwSIcgL4_Bs0VZ-23" value="" style="endArrow=classic;startArrow=classic;html=1;rounded=0;exitX=0.558;exitY=0.983;exitDx=0;exitDy=0;exitPerimeter=0;" parent="1" source="x7VfMDNwSIcgL4_Bs0VZ-22" edge="1">
          <mxGeometry width="50" height="50" relative="1" as="geometry">
            <mxPoint x="570" y="220" as="sourcePoint" />
            <mxPoint x="620" y="170" as="targetPoint" />
          </mxGeometry>
        </mxCell>
        <mxCell id="x7VfMDNwSIcgL4_Bs0VZ-24" value="" style="endArrow=classic;startArrow=classic;html=1;rounded=0;entryX=0.25;entryY=1;entryDx=0;entryDy=0;exitX=0.095;exitY=0.017;exitDx=0;exitDy=0;exitPerimeter=0;" parent="1" source="x7VfMDNwSIcgL4_Bs0VZ-10" target="x7VfMDNwSIcgL4_Bs0VZ-22" edge="1">
          <mxGeometry width="50" height="50" relative="1" as="geometry">
            <mxPoint x="350" y="230" as="sourcePoint" />
            <mxPoint x="400" y="180" as="targetPoint" />
          </mxGeometry>
        </mxCell>
        <mxCell id="Bo9KxZHXjJihy56jrOnq-2" value="Registry Maintainer" style="whiteSpace=wrap;html=1;aspect=fixed;" vertex="1" parent="1">
          <mxGeometry x="640" y="460" width="100" height="100" as="geometry" />
        </mxCell>
      </root>
    </mxGraphModel>
  </diagram>
</mxfile>
